<svg width="1269" height="1024" viewBox="0 0 1269 1024" fill="none" xmlns="http://www.w3.org/2000/svg">
<g filter="url(#filter0_g_23_473)">
<rect x="15" width="1254" height="1024" fill="white"/>
</g>
<g opacity="0.1">
<line x1="15" y1="39.3832" x2="1269" y2="39.3832" stroke="black"/>
<line x1="15" y1="49.354" x2="1269" y2="49.354" stroke="black"/>
<line x1="15" y1="59.3248" x2="1269" y2="59.3248" stroke="black"/>
<line x1="15" y1="69.2956" x2="1269" y2="69.2956" stroke="black"/>
<line x1="15" y1="79.2664" x2="1269" y2="79.2664" stroke="black"/>
<line x1="15" y1="9.47079" x2="1269" y2="9.47079" stroke="black"/>
<line x1="15" y1="19.4416" x2="1269" y2="19.4416" stroke="black"/>
<line x1="15" y1="29.4124" x2="1269" y2="29.4124" stroke="black"/>
<line x1="15.0015" y1="89.2372" x2="1269" y2="89.2372" stroke="black"/>
<line x1="15.0015" y1="129.12" x2="1269" y2="129.12" stroke="black"/>
<line x1="15.0015" y1="139.091" x2="1269" y2="139.091" stroke="black"/>
<line x1="15.0015" y1="149.062" x2="1269" y2="149.062" stroke="black"/>
<line x1="15.0015" y1="159.033" x2="1269" y2="159.033" stroke="black"/>
<line x1="15.0015" y1="169.004" x2="1269" y2="169.004" stroke="black"/>
<line x1="15.0015" y1="99.208" x2="1269" y2="99.208" stroke="black"/>
<line x1="15.0015" y1="109.179" x2="1269" y2="109.179" stroke="black"/>
<line x1="15.0015" y1="119.15" x2="1269" y2="119.15" stroke="black"/>
<line x1="15.0015" y1="178.974" x2="1269" y2="178.974" stroke="black"/>
<line x1="15.0015" y1="218.858" x2="1269" y2="218.858" stroke="black"/>
<line x1="15.0015" y1="228.828" x2="1269" y2="228.828" stroke="black"/>
<line x1="15.0015" y1="238.799" x2="1269" y2="238.799" stroke="black"/>
<line x1="15.0015" y1="248.77" x2="1269" y2="248.77" stroke="black"/>
<line x1="15.0015" y1="258.741" x2="1269" y2="258.741" stroke="black"/>
<line x1="15.0015" y1="188.945" x2="1269" y2="188.945" stroke="black"/>
<line x1="15.0015" y1="198.916" x2="1269" y2="198.916" stroke="black"/>
<line x1="15.0015" y1="208.887" x2="1269" y2="208.887" stroke="black"/>
<line x1="15.0029" y1="268.712" x2="1269" y2="268.712" stroke="black"/>
<line x1="15.0029" y1="308.595" x2="1269" y2="308.595" stroke="black"/>
<line x1="15.0029" y1="318.566" x2="1269" y2="318.566" stroke="black"/>
<line x1="15.0029" y1="328.536" x2="1269" y2="328.536" stroke="black"/>
<line x1="15.0029" y1="338.507" x2="1269" y2="338.507" stroke="black"/>
<line x1="15.0029" y1="348.478" x2="1269" y2="348.478" stroke="black"/>
<line x1="15.0029" y1="278.682" x2="1269" y2="278.682" stroke="black"/>
<line x1="15.0029" y1="288.653" x2="1269" y2="288.653" stroke="black"/>
<line x1="15.0029" y1="298.624" x2="1269" y2="298.624" stroke="black"/>
<line x1="15.0015" y1="358.449" x2="1269" y2="358.449" stroke="black"/>
<line x1="15.0015" y1="398.332" x2="1269" y2="398.332" stroke="black"/>
<line x1="15.0015" y1="408.303" x2="1269" y2="408.303" stroke="black"/>
<line x1="15.0015" y1="418.274" x2="1269" y2="418.274" stroke="black"/>
<line x1="15.0015" y1="428.244" x2="1269" y2="428.244" stroke="black"/>
<line x1="15.0015" y1="438.215" x2="1269" y2="438.215" stroke="black"/>
<line x1="15.0015" y1="368.42" x2="1269" y2="368.42" stroke="black"/>
<line x1="15.0015" y1="378.39" x2="1269" y2="378.39" stroke="black"/>
<line x1="15.0015" y1="388.361" x2="1269" y2="388.361" stroke="black"/>
<line x1="15.0029" y1="448.186" x2="1269" y2="448.186" stroke="black"/>
<line x1="15.0029" y1="488.069" x2="1269" y2="488.069" stroke="black"/>
<line x1="15.0029" y1="498.04" x2="1269" y2="498.04" stroke="black"/>
<line x1="15.0029" y1="508.011" x2="1269" y2="508.011" stroke="black"/>
<line x1="15.0029" y1="517.982" x2="1269" y2="517.982" stroke="black"/>
<line x1="15.0029" y1="527.952" x2="1269" y2="527.952" stroke="black"/>
<line x1="15.0029" y1="458.157" x2="1269" y2="458.157" stroke="black"/>
<line x1="15.0029" y1="468.128" x2="1269" y2="468.128" stroke="black"/>
<line x1="15.0029" y1="478.098" x2="1269" y2="478.098" stroke="black"/>
<line x1="15.0015" y1="537.923" x2="1269" y2="537.923" stroke="black"/>
<line x1="15.0015" y1="577.806" x2="1269" y2="577.806" stroke="black"/>
<line x1="15.0015" y1="587.777" x2="1269" y2="587.777" stroke="black"/>
<line x1="15.0015" y1="597.748" x2="1269" y2="597.748" stroke="black"/>
<line x1="15.0015" y1="607.719" x2="1269" y2="607.719" stroke="black"/>
<line x1="15.0015" y1="617.69" x2="1269" y2="617.69" stroke="black"/>
<line x1="15.0015" y1="547.894" x2="1269" y2="547.894" stroke="black"/>
<line x1="15.0015" y1="557.865" x2="1269" y2="557.865" stroke="black"/>
<line x1="15.0015" y1="567.836" x2="1269" y2="567.836" stroke="black"/>
<line x1="15.0029" y1="627.66" x2="1269" y2="627.66" stroke="black"/>
<line x1="15.0029" y1="667.543" x2="1269" y2="667.543" stroke="black"/>
<line x1="15.0029" y1="677.514" x2="1269" y2="677.514" stroke="black"/>
<line x1="15.0029" y1="687.485" x2="1269" y2="687.485" stroke="black"/>
<line x1="15.0029" y1="697.456" x2="1269" y2="697.456" stroke="black"/>
<line x1="15.0029" y1="707.427" x2="1269" y2="707.427" stroke="black"/>
<line x1="15.0029" y1="637.631" x2="1269" y2="637.631" stroke="black"/>
<line x1="15.0029" y1="647.602" x2="1269" y2="647.602" stroke="black"/>
<line x1="15.0029" y1="657.573" x2="1269" y2="657.573" stroke="black"/>
<line x1="15.0015" y1="717.397" x2="1269" y2="717.397" stroke="black"/>
<line x1="15.0015" y1="757.281" x2="1269" y2="757.281" stroke="black"/>
<line x1="15.0015" y1="767.251" x2="1269" y2="767.251" stroke="black"/>
<line x1="15.0015" y1="777.222" x2="1269" y2="777.222" stroke="black"/>
<line x1="15.0015" y1="787.193" x2="1269" y2="787.193" stroke="black"/>
<line x1="15.0015" y1="797.164" x2="1269" y2="797.164" stroke="black"/>
<line x1="15.0015" y1="727.368" x2="1269" y2="727.368" stroke="black"/>
<line x1="15.0015" y1="737.339" x2="1269" y2="737.339" stroke="black"/>
<line x1="15.0015" y1="747.31" x2="1269" y2="747.31" stroke="black"/>
<line x1="15.0029" y1="807.135" x2="1269" y2="807.135" stroke="black"/>
<line x1="15.0029" y1="847.018" x2="1269" y2="847.018" stroke="black"/>
<line x1="15.0029" y1="856.989" x2="1269" y2="856.989" stroke="black"/>
<line x1="15.0029" y1="866.959" x2="1269" y2="866.959" stroke="black"/>
<line x1="15.0029" y1="876.93" x2="1269" y2="876.93" stroke="black"/>
<line x1="15.0029" y1="886.901" x2="1269" y2="886.901" stroke="black"/>
<line x1="15.0029" y1="817.105" x2="1269" y2="817.105" stroke="black"/>
<line x1="15.0029" y1="827.076" x2="1269" y2="827.076" stroke="black"/>
<line x1="15.0029" y1="837.047" x2="1269" y2="837.047" stroke="black"/>
<line x1="15.0015" y1="896.872" x2="1269" y2="896.872" stroke="black"/>
<line x1="15.0015" y1="936.755" x2="1269" y2="936.755" stroke="black"/>
<line x1="15.0015" y1="946.726" x2="1269" y2="946.726" stroke="black"/>
<line x1="15.0015" y1="956.697" x2="1269" y2="956.697" stroke="black"/>
<line x1="15.0015" y1="966.667" x2="1269" y2="966.667" stroke="black"/>
<line x1="15.0015" y1="976.638" x2="1269" y2="976.638" stroke="black"/>
<line x1="15.0015" y1="906.843" x2="1269" y2="906.843" stroke="black"/>
<line x1="15.0015" y1="916.813" x2="1269" y2="916.813" stroke="black"/>
<line x1="15.0015" y1="926.784" x2="1269" y2="926.784" stroke="black"/>
<line x1="15.0029" y1="986.609" x2="1269" y2="986.609" stroke="black"/>
<line x1="15.0029" y1="996.58" x2="1269" y2="996.58" stroke="black"/>
<line x1="15.0029" y1="1006.55" x2="1269" y2="1006.55" stroke="black"/>
<line x1="15.0029" y1="1016.52" x2="1269" y2="1016.52" stroke="black"/>
<line x1="54.1846" y1="1024.99" x2="54.1846" y2="-0.997437" stroke="black"/>
<line x1="64.106" y1="1024.99" x2="64.106" y2="-0.997437" stroke="black"/>
<line x1="74.0269" y1="1024.99" x2="74.0269" y2="-0.997437" stroke="black"/>
<line x1="83.9473" y1="1024.99" x2="83.9473" y2="-0.997437" stroke="black"/>
<line x1="93.8682" y1="1024.99" x2="93.8682" y2="-0.997437" stroke="black"/>
<line x1="24.4224" y1="1024.99" x2="24.4224" y2="-0.997437" stroke="black"/>
<line x1="34.3433" y1="1024.99" x2="34.3433" y2="-0.997437" stroke="black"/>
<line x1="44.2642" y1="1024.99" x2="44.2642" y2="-0.997437" stroke="black"/>
<line x1="103.789" y1="1024.99" x2="103.789" y2="-0.998596" stroke="black"/>
<line x1="143.473" y1="1024.99" x2="143.473" y2="-0.998596" stroke="black"/>
<line x1="153.393" y1="1024.99" x2="153.393" y2="-0.998596" stroke="black"/>
<line x1="163.314" y1="1024.99" x2="163.314" y2="-0.998596" stroke="black"/>
<line x1="173.235" y1="1024.99" x2="173.235" y2="-0.998596" stroke="black"/>
<line x1="183.156" y1="1024.99" x2="183.156" y2="-0.998596" stroke="black"/>
<line x1="113.71" y1="1024.99" x2="113.71" y2="-0.998596" stroke="black"/>
<line x1="123.631" y1="1024.99" x2="123.631" y2="-0.998596" stroke="black"/>
<line x1="133.552" y1="1024.99" x2="133.552" y2="-0.998596" stroke="black"/>
<line x1="193.077" y1="1024.99" x2="193.077" y2="-0.998596" stroke="black"/>
<line x1="232.759" y1="1024.99" x2="232.759" y2="-0.998596" stroke="black"/>
<line x1="242.68" y1="1024.99" x2="242.68" y2="-0.998596" stroke="black"/>
<line x1="252.601" y1="1024.99" x2="252.601" y2="-0.998596" stroke="black"/>
<line x1="262.522" y1="1024.99" x2="262.522" y2="-0.998596" stroke="black"/>
<line x1="272.443" y1="1024.99" x2="272.443" y2="-0.998596" stroke="black"/>
<line x1="202.998" y1="1024.99" x2="202.998" y2="-0.998596" stroke="black"/>
<line x1="212.918" y1="1024.99" x2="212.918" y2="-0.998596" stroke="black"/>
<line x1="222.838" y1="1024.99" x2="222.838" y2="-0.998596" stroke="black"/>
<line x1="282.363" y1="1024.99" x2="282.363" y2="-0.999939" stroke="black"/>
<line x1="322.047" y1="1024.99" x2="322.047" y2="-0.999939" stroke="black"/>
<line x1="331.968" y1="1024.99" x2="331.968" y2="-0.999939" stroke="black"/>
<line x1="341.889" y1="1024.99" x2="341.889" y2="-0.999939" stroke="black"/>
<line x1="351.81" y1="1024.99" x2="351.81" y2="-0.999939" stroke="black"/>
<line x1="361.73" y1="1024.99" x2="361.73" y2="-0.999939" stroke="black"/>
<line x1="292.285" y1="1024.99" x2="292.285" y2="-0.999939" stroke="black"/>
<line x1="302.206" y1="1024.99" x2="302.206" y2="-0.999939" stroke="black"/>
<line x1="312.126" y1="1024.99" x2="312.126" y2="-0.999939" stroke="black"/>
<line x1="371.651" y1="1024.99" x2="371.651" y2="-0.998596" stroke="black"/>
<line x1="411.334" y1="1024.99" x2="411.334" y2="-0.998596" stroke="black"/>
<line x1="421.256" y1="1024.99" x2="421.256" y2="-0.998596" stroke="black"/>
<line x1="431.176" y1="1024.99" x2="431.176" y2="-0.998596" stroke="black"/>
<line x1="441.097" y1="1024.99" x2="441.097" y2="-0.998596" stroke="black"/>
<line x1="451.019" y1="1024.99" x2="451.019" y2="-0.998596" stroke="black"/>
<line x1="381.572" y1="1024.99" x2="381.572" y2="-0.998596" stroke="black"/>
<line x1="391.493" y1="1024.99" x2="391.493" y2="-0.998596" stroke="black"/>
<line x1="401.414" y1="1024.99" x2="401.414" y2="-0.998596" stroke="black"/>
<line x1="460.939" y1="1024.99" x2="460.939" y2="-0.999939" stroke="black"/>
<line x1="500.623" y1="1024.99" x2="500.623" y2="-0.999939" stroke="black"/>
<line x1="510.543" y1="1024.99" x2="510.543" y2="-0.999939" stroke="black"/>
<line x1="520.464" y1="1024.99" x2="520.464" y2="-0.999939" stroke="black"/>
<line x1="530.385" y1="1024.99" x2="530.385" y2="-0.999939" stroke="black"/>
<line x1="540.306" y1="1024.99" x2="540.306" y2="-0.999939" stroke="black"/>
<line x1="470.86" y1="1024.99" x2="470.86" y2="-0.999939" stroke="black"/>
<line x1="480.781" y1="1024.99" x2="480.781" y2="-0.999939" stroke="black"/>
<line x1="490.702" y1="1024.99" x2="490.702" y2="-0.999939" stroke="black"/>
<line x1="550.227" y1="1024.99" x2="550.227" y2="-0.998596" stroke="black"/>
<line x1="589.91" y1="1024.99" x2="589.91" y2="-0.998596" stroke="black"/>
<line x1="599.831" y1="1024.99" x2="599.831" y2="-0.998596" stroke="black"/>
<line x1="609.751" y1="1024.99" x2="609.751" y2="-0.998596" stroke="black"/>
<line x1="619.672" y1="1024.99" x2="619.672" y2="-0.998596" stroke="black"/>
<line x1="629.593" y1="1024.99" x2="629.593" y2="-0.998596" stroke="black"/>
<line x1="560.147" y1="1024.99" x2="560.147" y2="-0.998596" stroke="black"/>
<line x1="570.068" y1="1024.99" x2="570.068" y2="-0.998596" stroke="black"/>
<line x1="579.989" y1="1024.99" x2="579.989" y2="-0.998596" stroke="black"/>
<line x1="639.514" y1="1024.99" x2="639.514" y2="-0.999939" stroke="black"/>
<line x1="679.197" y1="1024.99" x2="679.197" y2="-0.999939" stroke="black"/>
<line x1="689.118" y1="1024.99" x2="689.118" y2="-0.999939" stroke="black"/>
<line x1="699.039" y1="1024.99" x2="699.039" y2="-0.999939" stroke="black"/>
<line x1="708.959" y1="1024.99" x2="708.959" y2="-0.999939" stroke="black"/>
<line x1="718.88" y1="1024.99" x2="718.88" y2="-0.999939" stroke="black"/>
<line x1="649.435" y1="1024.99" x2="649.435" y2="-0.999939" stroke="black"/>
<line x1="659.355" y1="1024.99" x2="659.355" y2="-0.999939" stroke="black"/>
<line x1="669.276" y1="1024.99" x2="669.276" y2="-0.999939" stroke="black"/>
<line x1="728.801" y1="1024.99" x2="728.801" y2="-0.998596" stroke="black"/>
<line x1="768.484" y1="1024.99" x2="768.484" y2="-0.998596" stroke="black"/>
<line x1="778.406" y1="1024.99" x2="778.406" y2="-0.998596" stroke="black"/>
<line x1="788.326" y1="1024.99" x2="788.326" y2="-0.998596" stroke="black"/>
<line x1="798.247" y1="1024.99" x2="798.247" y2="-0.998596" stroke="black"/>
<line x1="808.168" y1="1024.99" x2="808.168" y2="-0.998596" stroke="black"/>
<line x1="738.722" y1="1024.99" x2="738.722" y2="-0.998596" stroke="black"/>
<line x1="748.643" y1="1024.99" x2="748.643" y2="-0.998596" stroke="black"/>
<line x1="758.564" y1="1024.99" x2="758.564" y2="-0.998596" stroke="black"/>
<line x1="818.089" y1="1024.99" x2="818.089" y2="-0.999939" stroke="black"/>
<line x1="857.772" y1="1024.99" x2="857.772" y2="-0.999939" stroke="black"/>
<line x1="867.693" y1="1024.99" x2="867.693" y2="-0.999939" stroke="black"/>
<line x1="877.614" y1="1024.99" x2="877.614" y2="-0.999939" stroke="black"/>
<line x1="887.535" y1="1024.99" x2="887.535" y2="-0.999939" stroke="black"/>
<line x1="897.456" y1="1024.99" x2="897.456" y2="-0.999939" stroke="black"/>
<line x1="828.01" y1="1024.99" x2="828.01" y2="-0.999939" stroke="black"/>
<line x1="837.93" y1="1024.99" x2="837.93" y2="-0.999939" stroke="black"/>
<line x1="847.852" y1="1024.99" x2="847.852" y2="-0.999939" stroke="black"/>
<line x1="907.377" y1="1024.99" x2="907.377" y2="-0.998596" stroke="black"/>
<line x1="947.06" y1="1024.99" x2="947.06" y2="-0.998596" stroke="black"/>
<line x1="956.981" y1="1024.99" x2="956.981" y2="-0.998596" stroke="black"/>
<line x1="966.902" y1="1024.99" x2="966.902" y2="-0.998596" stroke="black"/>
<line x1="976.823" y1="1024.99" x2="976.823" y2="-0.998596" stroke="black"/>
<line x1="986.744" y1="1024.99" x2="986.744" y2="-0.998596" stroke="black"/>
<line x1="917.297" y1="1024.99" x2="917.297" y2="-0.998596" stroke="black"/>
<line x1="927.218" y1="1024.99" x2="927.218" y2="-0.998596" stroke="black"/>
<line x1="937.139" y1="1024.99" x2="937.139" y2="-0.998596" stroke="black"/>
<line x1="996.664" y1="1024.99" x2="996.664" y2="-0.999939" stroke="black"/>
<line x1="1006.58" y1="1024.99" x2="1006.58" y2="-0.999939" stroke="black"/>
<line x1="1016.51" y1="1024.99" x2="1016.51" y2="-0.999939" stroke="black"/>
<line x1="1026.43" y1="1024.99" x2="1026.43" y2="-0.999939" stroke="black"/>
<line x1="1036.35" y1="1024.99" x2="1036.35" y2="-0.999939" stroke="black"/>
<line x1="1046.27" y1="1024.99" x2="1046.27" y2="-0.998657" stroke="black"/>
<line x1="1056.19" y1="1024.99" x2="1056.19" y2="-0.998657" stroke="black"/>
<line x1="1066.11" y1="1024.99" x2="1066.11" y2="-0.998657" stroke="black"/>
<line x1="1076.03" y1="1024.99" x2="1076.03" y2="-0.998657" stroke="black"/>
<line x1="1085.95" y1="1024.99" x2="1085.95" y2="-1" stroke="black"/>
<line x1="1095.87" y1="1024.99" x2="1095.87" y2="-1" stroke="black"/>
<line x1="1105.79" y1="1024.99" x2="1105.79" y2="-1" stroke="black"/>
<line x1="1115.71" y1="1024.99" x2="1115.71" y2="-1" stroke="black"/>
<line x1="1125.63" y1="1024.99" x2="1125.63" y2="-1" stroke="black"/>
<line x1="1135.56" y1="1028" x2="1135.56" y2="2.01306" stroke="black"/>
<line x1="1145.48" y1="1028" x2="1145.48" y2="2.01306" stroke="black"/>
<line x1="1155.4" y1="1028" x2="1155.4" y2="2.01306" stroke="black"/>
<line x1="1165.32" y1="1028" x2="1165.32" y2="2.01306" stroke="black"/>
<line x1="1175.24" y1="1028" x2="1175.24" y2="2.01172" stroke="black"/>
<line x1="1185.16" y1="1028" x2="1185.16" y2="2.01172" stroke="black"/>
<line x1="1195.08" y1="1028" x2="1195.08" y2="2.01172" stroke="black"/>
<line x1="1205" y1="1028" x2="1205" y2="2.01172" stroke="black"/>
<line x1="1214.92" y1="1028" x2="1214.92" y2="2.01172" stroke="black"/>
<line x1="1224.84" y1="1028" x2="1224.84" y2="2.013" stroke="black"/>
<line x1="1234.76" y1="1028" x2="1234.76" y2="2.013" stroke="black"/>
<line x1="1244.68" y1="1028" x2="1244.68" y2="2.013" stroke="black"/>
<line x1="1254.61" y1="1028" x2="1254.61" y2="2.013" stroke="black"/>
<line x1="1264.53" y1="1028" x2="1264.53" y2="2.01166" stroke="black"/>
</g>
<defs>
<filter id="filter0_g_23_473" x="0" y="-15" width="1284" height="1054" filterUnits="userSpaceOnUse" color-interpolation-filters="sRGB">
<feFlood flood-opacity="0" result="BackgroundImageFix"/>
<feBlend mode="normal" in="SourceGraphic" in2="BackgroundImageFix" result="shape"/>
<feTurbulence type="fractalNoise" baseFrequency="0.047846890985965729 0.047846890985965729" numOctaves="3" seed="3707" />
<feDisplacementMap in="shape" scale="30" xChannelSelector="R" yChannelSelector="G" result="displacedImage" width="100%" height="100%" />
<feMerge result="effect1_texture_23_473">
<feMergeNode in="displacedImage"/>
</feMerge>
</filter>
</defs>
</svg>
